# xmcd
#
# Track frame offsets: 
#        182
#        18297
#        40007
#        67707
#        94077
#        116932
#
# Disc length: 1861 seconds
#
# Revision: 3
# Processed by: cddbd v1.5.1PL0 Copyright (c) Steve Scherf et al.
# Submitted via: ExactAudioCopy v0.95a5
#
DISCID=41074306
DTITLE=EN Sonic - SERENADE OF LOVE
DYEAR=1994
DGENRE=
TTITLE0=SERENADE OF LOVE (Radio Version)
TTITLE1=SERENADE OF LOVE (Extended Mix)
TTITLE2=SERENADE OF LOVE (Onda Del Futuro Remix)
TTITLE3=SERENADE OF LOVE (Trance-Sonic Mix)
TTITLE4=SERENADE OF LOVE (Danoir Remix)
TTITLE5=SERENADE OF LOVE ( Flower On The Moon Mix)
EXTD=
EXTT0=
EXTT1=
EXTT2=
EXTT3=
EXTT4=
EXTT5=
PLAYORDER=
